<svg width="14" height="18" viewBox="0 0 14 18" fill="none" xmlns="http://www.w3.org/2000/svg">
<path d="M6.99999 9C6.08333 9 5.33333 8.25 5.33333 7.33334C5.33333 6.41667 6.08333 5.66667 6.99999 5.66667C7.91666 5.66667 8.66666 6.41667 8.66666 7.33334C8.66666 8.25 7.91666 9 6.99999 9ZM12 7.5C12 4.475 9.79166 2.33334 6.99999 2.33334C4.20833 2.33334 1.99999 4.475 1.99999 7.5C1.99999 9.45 3.62499 12.0333 6.99999 15.1167C10.375 12.0333 12 9.45 12 7.5ZM6.99999 0.666672C10.5 0.666672 13.6667 3.35 13.6667 7.5C13.6667 10.2667 11.4417 13.5417 6.99999 17.3333C2.55833 13.5417 0.333328 10.2667 0.333328 7.5C0.333328 3.35 3.49999 0.666672 6.99999 0.666672Z" fill="#282828"/>
</svg>
