<svg width="26" height="24" viewBox="0 0 26 24" fill="none" xmlns="http://www.w3.org/2000/svg">
<path d="M11.7636 2.07041C12.1528 0.872708 13.8472 0.872708 14.2364 2.07041L15.702 6.58106C16.0634 7.69352 17.1001 8.44671 18.2698 8.44671L23.0126 8.44671C24.2719 8.44671 24.7955 10.0582 23.7767 10.7984L19.9397 13.5862C18.9934 14.2737 18.5974 15.4924 18.9589 16.6049L20.4245 21.1155C20.8137 22.3132 19.4428 23.3092 18.424 22.5689L14.587 19.7812C13.6407 19.0937 12.3593 19.0937 11.413 19.7812L7.576 22.5689C6.55717 23.3092 5.18634 22.3132 5.5755 21.1155L7.0411 16.6049C7.40256 15.4924 7.00658 14.2737 6.06027 13.5862L2.22328 10.7984C1.20446 10.0582 1.72806 8.44671 2.9874 8.44671L7.73018 8.44671C8.89989 8.44671 9.93657 7.69352 10.298 6.58106L11.7636 2.07041Z" stroke="#7C7C7C" stroke-width="1.4"/>
</svg>
